<svg xmlns="http://www.w3.org/2000/svg" viewBox="0 0 600 600" width="600" height="600">
  <!-- Background gradient -->
  <defs>
    <!-- Main background gradient -->
    <radialGradient id="mainBg" cx="50%" cy="50%" r="70%">
      <stop offset="0%" style="stop-color:#f8f1e5;stop-opacity:1" />
      <stop offset="50%" style="stop-color:#e8d5b7;stop-opacity:1" />
      <stop offset="100%" style="stop-color:#d4af37;stop-opacity:0.3" />
    </radialGradient>
    
    <!-- Mystical aura gradient -->
    <radialGradient id="aura" cx="50%" cy="50%" r="80%">
      <stop offset="0%" style="stop-color:#6e48aa;stop-opacity:0.1" />
      <stop offset="70%" style="stop-color:#9d50bb;stop-opacity:0.2" />
      <stop offset="100%" style="stop-color:#4a148c;stop-opacity:0.4" />
    </radialGradient>
    
    <!-- Blessing glow -->
    <radialGradient id="blessingGlow" cx="50%" cy="50%" r="50%">
      <stop offset="0%" style="stop-color:#a8e6cf;stop-opacity:0.8" />
      <stop offset="100%" style="stop-color:#a8e6cf;stop-opacity:0" />
    </radialGradient>
    
    <!-- Curse shadow -->
    <radialGradient id="curseShadow" cx="50%" cy="50%" r="50%">
      <stop offset="0%" style="stop-color:#ff8b94;stop-opacity:0.6" />
      <stop offset="100%" style="stop-color:#ff8b94;stop-opacity:0" />
    </radialGradient>
    
    <!-- Ancient pattern -->
    <pattern id="ancientPattern" x="0" y="0" width="40" height="40" patternUnits="userSpaceOnUse">
      <rect width="40" height="40" fill="none"/>
      <path d="M20,5 L35,20 L20,35 L5,20 Z" fill="none" stroke="#d4af37" stroke-width="0.5" opacity="0.3"/>
      <circle cx="20" cy="20" r="3" fill="none" stroke="#d4af37" stroke-width="0.5" opacity="0.2"/>
    </pattern>
    
    <!-- Starfield pattern -->
    <pattern id="stars" x="0" y="0" width="100" height="100" patternUnits="userSpaceOnUse">
      <rect width="100" height="100" fill="none"/>
      <circle cx="20" cy="25" r="1" fill="#ffcc5c" opacity="0.6">
        <animate attributeName="opacity" values="0.3;1;0.3" dur="3s" repeatCount="indefinite"/>
      </circle>
      <circle cx="60" cy="15" r="0.8" fill="#ffcc5c" opacity="0.5">
        <animate attributeName="opacity" values="0.2;0.8;0.2" dur="4s" repeatCount="indefinite"/>
      </circle>
      <circle cx="80" cy="70" r="1.2" fill="#ffcc5c" opacity="0.7">
        <animate attributeName="opacity" values="0.4;1;0.4" dur="2.5s" repeatCount="indefinite"/>
      </circle>
      <circle cx="30" cy="80" r="0.9" fill="#ffcc5c" opacity="0.4">
        <animate attributeName="opacity" values="0.2;0.9;0.2" dur="3.5s" repeatCount="indefinite"/>
      </circle>
      <circle cx="70" cy="40" r="0.7" fill="#ffcc5c" opacity="0.6">
        <animate attributeName="opacity" values="0.3;0.8;0.3" dur="2.8s" repeatCount="indefinite"/>
      </circle>
    </pattern>
  </defs>
  
  <!-- Main background -->
  <rect width="600" height="600" fill="url(#mainBg)"/>
  
  <!-- Ancient pattern overlay -->
  <rect width="600" height="600" fill="url(#ancientPattern)"/>
  
  <!-- Mystical aura -->
  <rect width="600" height="600" fill="url(#aura)"/>
  
  <!-- Starfield -->
  <rect width="600" height="600" fill="url(#stars)"/>
  
  <!-- Corner decorative elements -->
  <!-- Top-left blessing corner -->
  <g transform="translate(50, 50)">
    <circle cx="0" cy="0" r="30" fill="url(#blessingGlow)"/>
    <path d="M-15,-15 Q0,-25 15,-15 Q25,0 15,15 Q0,25 -15,15 Q-25,0 -15,-15 Z" 
          fill="none" stroke="#a8e6cf" stroke-width="2" opacity="0.6">
      <animateTransform attributeName="transform" type="rotate" 
                        values="0;360" dur="20s" repeatCount="indefinite"/>
    </path>
    <circle cx="0" cy="0" r="8" fill="#a8e6cf" opacity="0.3"/>
  </g>
  
  <!-- Top-right curse corner -->
  <g transform="translate(550, 50)">
    <circle cx="0" cy="0" r="30" fill="url(#curseShadow)"/>
    <path d="M0,-20 L6,-6 L20,-6 L10,2 L16,16 L0,8 L-16,16 L-10,2 L-20,-6 L-6,-6 Z" 
          fill="none" stroke="#ff8b94" stroke-width="2" opacity="0.6">
      <animateTransform attributeName="transform" type="rotate" 
                        values="0;-360" dur="25s" repeatCount="indefinite"/>
    </path>
    <circle cx="0" cy="0" r="6" fill="#ff8b94" opacity="0.4"/>
  </g>
  
  <!-- Bottom-left curse corner -->
  <g transform="translate(50, 550)">
    <circle cx="0" cy="0" r="30" fill="url(#curseShadow)"/>
    <path d="M0,-20 L6,-6 L20,-6 L10,2 L16,16 L0,8 L-16,16 L-10,2 L-20,-6 L-6,-6 Z" 
          fill="none" stroke="#ff8b94" stroke-width="2" opacity="0.6">
      <animateTransform attributeName="transform" type="rotate" 
                        values="0;360" dur="30s" repeatCount="indefinite"/>
    </path>
    <circle cx="0" cy="0" r="6" fill="#ff8b94" opacity="0.4"/>
  </g>
  
  <!-- Bottom-right blessing corner -->
  <g transform="translate(550, 550)">
    <circle cx="0" cy="0" r="30" fill="url(#blessingGlow)"/>
    <path d="M-15,-15 Q0,-25 15,-15 Q25,0 15,15 Q0,25 -15,15 Q-25,0 -15,-15 Z" 
          fill="none" stroke="#a8e6cf" stroke-width="2" opacity="0.6">
      <animateTransform attributeName="transform" type="rotate" 
                        values="0;-360" dur="18s" repeatCount="indefinite"/>
    </path>
    <circle cx="0" cy="0" r="8" fill="#a8e6cf" opacity="0.3"/>
  </g>
  
  <!-- Central mystical symbol -->
  <g transform="translate(300, 300)">
    <!-- Outer circle -->
    <circle cx="0" cy="0" r="80" fill="none" stroke="#d4af37" stroke-width="1" opacity="0.4">
      <animate attributeName="stroke-opacity" values="0.2;0.6;0.2" dur="4s" repeatCount="indefinite"/>
    </circle>
    
    <!-- Inner circle -->
    <circle cx="0" cy="0" r="50" fill="none" stroke="#6e48aa" stroke-width="1" opacity="0.3">
      <animate attributeName="stroke-opacity" values="0.1;0.5;0.1" dur="3s" repeatCount="indefinite"/>
    </circle>
    
    <!-- Central yin-yang like symbol -->
    <g opacity="0.3">
      <path d="M0,-30 A30,30 0 0,1 0,30 A15,15 0 0,1 0,0 A15,15 0 0,0 0,-30 Z" 
            fill="#a8e6cf"/>
      <path d="M0,30 A30,30 0 0,1 0,-30 A15,15 0 0,1 0,0 A15,15 0 0,0 0,30 Z" 
            fill="#ff8b94"/>
      <circle cx="0" cy="15" r="5" fill="#ff8b94"/>
      <circle cx="0" cy="-15" r="5" fill="#a8e6cf"/>
      <animateTransform attributeName="transform" type="rotate" 
                        values="0;360" dur="40s" repeatCount="indefinite"/>
    </g>
  </g>
  
  <!-- Floating magical particles -->
  <g opacity="0.6">
    <circle cx="150" cy="200" r="2" fill="#ffcc5c">
      <animateTransform attributeName="transform" type="translate" 
                        values="0,0; 10,-20; 0,0" dur="6s" repeatCount="indefinite"/>
      <animate attributeName="opacity" values="0.3;1;0.3" dur="6s" repeatCount="indefinite"/>
    </circle>
    
    <circle cx="450" cy="400" r="1.5" fill="#a8e6cf">
      <animateTransform attributeName="transform" type="translate" 
                        values="0,0; -15,25; 0,0" dur="8s" repeatCount="indefinite"/>
      <animate attributeName="opacity" values="0.2;0.8;0.2" dur="8s" repeatCount="indefinite"/>
    </circle>
    
    <circle cx="350" cy="150" r="2.5" fill="#ff8b94">
      <animateTransform attributeName="transform" type="translate" 
                        values="0,0; 20,15; 0,0" dur="7s" repeatCount="indefinite"/>
      <animate attributeName="opacity" values="0.4;1;0.4" dur="7s" repeatCount="indefinite"/>
    </circle>
    
    <circle cx="100" cy="450" r="1.8" fill="#6e48aa">
      <animateTransform attributeName="transform" type="translate" 
                        values="0,0; -10,-30; 0,0" dur="5s" repeatCount="indefinite"/>
      <animate attributeName="opacity" values="0.2;0.9;0.2" dur="5s" repeatCount="indefinite"/>
    </circle>
  </g>
  
  <!-- Border frame -->
  <rect x="5" y="5" width="590" height="590" fill="none" 
        stroke="url(#aura)" stroke-width="2" opacity="0.5"/>
  
  <!-- Inner border -->
  <rect x="15" y="15" width="570" height="570" fill="none" 
        stroke="#d4af37" stroke-width="1" opacity="0.3"/>
</svg>